<?xml version="1.0" encoding="UTF-8"?>
<!DOCTYPE svg PUBLIC "-//W3C//DTD SVG 1.1//EN" "http://www.w3.org/Graphics/SVG/1.1/DTD/svg11.dtd">
<!-- Creator: CorelDRAW -->
<svg xmlns="http://www.w3.org/2000/svg" xml:space="preserve" width="1.70666in" height="1.70666in" version="1.1" style="shape-rendering:geometricPrecision; text-rendering:geometricPrecision; image-rendering:optimizeQuality; fill-rule:evenodd; clip-rule:evenodd"
viewBox="0 0 1707 1707"
 xmlns:xlink="http://www.w3.org/1999/xlink">
 <defs>
  <style type="text/css">
   <![CDATA[
    .fil0 {fill:black}
   ]]>
  </style>
 </defs>
 <g id="Layer_x0020_1">
  <metadata id="CorelCorpID_0Corel-Layer"/>
  <g id="_412939280">
   <g>
    <g>
     <g>
      <path class="fil0" d="M1619 1501l-422 0c-48,0 -87,-39 -87,-88l0 -838c0,-49 39,-88 87,-88l423 0c49,0 87,39 87,88l0 838c-1,49 -40,88 -88,88zm-422 -965c-22,0 -39,16 -39,39l0 838c0,21 18,39 39,39l423 0c21,0 39,-18 39,-39l0 -838c0,-23 -17,-39 -39,-39l-423 0z"/>
     </g>
     <g>
      <path class="fil0" d="M1682 668l-549 0c-13,0 -25,-12 -25,-25 0,-14 12,-25 25,-25l548 0c14,0 25,11 25,25 0,13 -11,25 -24,25z"/>
     </g>
     <g>
      <path class="fil0" d="M1682 1362l-549 0c-13,0 -25,-11 -25,-25 0,-14 12,-25 25,-25l548 0c14,0 25,11 25,25 0,14 -11,25 -24,25z"/>
     </g>
     <g>
      <path class="fil0" d="M1463 602l-111 0c-13,0 -25,-11 -25,-25 0,-13 12,-25 25,-25l111 0c14,0 25,12 25,25 0,14 -11,25 -25,25z"/>
     </g>
     <g>
      <path class="fil0" d="M1595 602l-40 0c-14,0 -25,-11 -25,-25 0,-13 11,-25 25,-25l40 0c14,0 25,12 25,25 0,14 -11,25 -25,25z"/>
     </g>
    </g>
    <g>
     <path class="fil0" d="M1133 1199l-1109 0c-14,0 -25,-12 -25,-25l0 -943c0,-14 11,-25 25,-25l1356 0c14,0 25,11 25,25l0 281c0,14 -11,25 -25,25 -14,0 -25,-11 -25,-25l0 -258 -1306 0 0 895 1084 0c14,0 25,11 25,25 0,13 -11,25 -25,25z"/>
    </g>
    <g>
     <path class="fil0" d="M1042 1501l-678 0c-8,0 -15,-4 -19,-10 -5,-7 -6,-15 -3,-22l50 -136c4,-10 12,-15 22,-15l578 0c10,0 19,7 22,15l50 136c3,7 1,15 -3,22 -4,7 -11,10 -19,10zm-643 -49l608 0 -32 -87 -543 0 -33 87z"/>
    </g>
    <g>
     <path class="fil0" d="M777 1366c-14,0 -25,-11 -25,-25l0 -167c0,-14 11,-25 25,-25 14,0 25,11 25,25l0 167c0,14 -11,25 -25,25zm-150 0c-14,0 -25,-11 -25,-25l0 -167c0,-14 11,-25 25,-25 14,0 25,11 25,25l0 167c0,14 -11,25 -25,25z"/>
    </g>
    <g>
     <path class="fil0" d="M1133 1065l-1109 0c-14,0 -25,-11 -25,-25 0,-13 11,-24 25,-24l1109 0c14,0 25,11 25,24 0,14 -11,25 -25,25z"/>
    </g>
    <g>
     <path class="fil0" d="M1477 1431l-137 0c-14,0 -25,-11 -25,-24 0,-14 11,-25 25,-25l137 0c14,0 25,11 25,25 0,13 -11,24 -25,24z"/>
    </g>
    <g>
     <path class="fil0" d="M966 881c-5,0 -9,-1 -13,-3l-708 -410c-11,-7 -16,-22 -9,-33 7,-11 23,-16 34,-9l709 411c12,7 16,22 9,33 -6,7 -14,11 -22,11z"/>
    </g>
    <g>
     <path class="fil0" d="M271 571c-12,0 -22,-9 -24,-21l-15 -99c-1,-11 4,-22 15,-26l93 -36c13,-4 27,1 32,14 4,12 -1,26 -14,32l-74 29 12 79c1,14 -7,25 -21,28 -1,0 -3,0 -4,0z"/>
    </g>
    <g>
     <path class="fil0" d="M873 917c-10,0 -20,-5 -22,-15 -5,-13 1,-26 13,-32l75 -29 -12 -79c-3,-14 7,-27 19,-28 14,-3 27,7 28,20l17 98c1,11 -5,22 -16,26l-93 36c-2,3 -5,3 -9,3z"/>
    </g>
    <g>
     <path class="fil0" d="M1408 1362c-14,0 -25,-11 -25,-25l0 -183c0,-14 11,-25 25,-25 14,0 25,11 25,25l0 183c0,15 -11,25 -25,25z"/>
    </g>
    <g>
     <path class="fil0" d="M1491 1362c-14,0 -25,-11 -25,-25l0 -140c0,-5 2,-11 6,-15l40 -50 0 -72c0,-14 11,-25 25,-25 14,0 25,11 25,25l0 80c0,6 -2,11 -6,16l-40 49 0 134c0,13 -11,23 -25,23z"/>
    </g>
    <g>
     <path class="fil0" d="M1325 1362c-14,0 -25,-11 -25,-25l0 -133 -40 -50c-5,-4 -6,-10 -6,-15l0 -80c0,-14 11,-25 25,-25 14,0 25,11 25,25l0 72 40 50c4,4 6,9 6,15l0 141c-2,15 -13,25 -25,25z"/>
    </g>
    <g>
     <path class="fil0" d="M1535 1085c-33,0 -59,-26 -59,-60 0,-33 26,-59 59,-59 34,0 60,26 60,59 1,32 -26,60 -60,60zm0 -72c-6,0 -11,5 -11,11 0,5 6,11 11,11 6,0 12,-6 12,-11 0,-6 -5,-11 -12,-11z"/>
    </g>
    <g>
     <path class="fil0" d="M1279 1085c-33,0 -60,-26 -60,-60 0,-33 27,-59 60,-59 33,0 61,26 61,59 1,32 -26,60 -61,60zm0 -72c-7,0 -11,5 -11,11 0,5 5,11 11,11 7,0 12,-6 12,-11 0,-6 -5,-11 -12,-11z"/>
    </g>
    <g>
     <path class="fil0" d="M1408 1179c-33,0 -60,-28 -60,-61 0,-33 27,-59 60,-59 33,0 60,26 60,59 1,33 -27,61 -60,61zm0 -73c-7,0 -11,5 -11,11 0,7 5,12 11,12 5,0 11,-5 11,-12 1,-6 -4,-11 -11,-11z"/>
    </g>
   </g>
  </g>
 </g>
</svg>
