<?xml version="1.0" encoding="utf-8"?><svg viewBox="0 0 512 512" xmlns="http://www.w3.org/2000/svg" xmlns:xlink="http://www.w3.org/1999/xlink"><style>:root>svg{display:none}:root>svg:target{display:block}</style><svg viewBox="0 0 24 24" id="code" xmlns="http://www.w3.org/2000/svg"><path d="M7.375 16.781l1.25-1.562L4.601 12l4.024-3.219-1.25-1.562-5 4a1 1 0 000 1.562l5 4zm9.25-9.562l-1.25 1.562L19.399 12l-4.024 3.219 1.25 1.562 5-4a1 1 0 000-1.562l-5-4zm-1.649-4.003l-4 18-1.953-.434 4-18z"/></svg><svg viewBox="0 0 24 24" id="css" xmlns="http://www.w3.org/2000/svg"><path d="M4.192 3.143h15.615l-1.42 16.034-6.404 1.812-6.369-1.813L4.192 3.143zM16.9 6.424l-9.8-.002.158 1.949 7.529.002-.189 2.02H9.66l.179 1.913h4.597l-.272 2.62-2.164.598-2.197-.603-.141-1.569h-1.94l.216 2.867L12 17.484l3.995-1.137.905-9.923z"/></svg><svg viewBox="0 0 24 24" id="github" xmlns="http://www.w3.org/2000/svg"><path fill-rule="evenodd" clip-rule="evenodd" d="M12.026 2c-5.509 0-9.974 4.465-9.974 9.974 0 4.406 2.857 8.145 6.821 9.465.499.09.679-.217.679-.481 0-.237-.008-.865-.011-1.696-2.775.602-3.361-1.338-3.361-1.338-.452-1.152-1.107-1.459-1.107-1.459-.905-.619.069-.605.069-.605 1.002.07 1.527 1.028 1.527 1.028.89 1.524 2.336 1.084 2.902.829.091-.645.351-1.085.635-1.334-2.214-.251-4.542-1.107-4.542-4.93 0-1.087.389-1.979 1.024-2.675-.101-.253-.446-1.268.099-2.64 0 0 .837-.269 2.742 1.021a9.582 9.582 0 012.496-.336 9.554 9.554 0 012.496.336c1.906-1.291 2.742-1.021 2.742-1.021.545 1.372.203 2.387.099 2.64.64.696 1.024 1.587 1.024 2.675 0 3.833-2.33 4.675-4.552 4.922.355.308.675.916.675 1.846 0 1.334-.012 2.41-.012 2.737 0 .267.178.577.687.479C19.146 20.115 22 16.379 22 11.974 22 6.465 17.535 2 12.026 2z"/></svg><svg viewBox="0 0 24 24" id="html" xmlns="http://www.w3.org/2000/svg"><path d="M4.136 3.012h15.729l-1.431 16.15-6.451 1.826-6.414-1.826-1.433-16.15zm5.266 7.302l-.173-2.035 7.533.002.173-1.963-9.87-.002.522 5.998h6.835l-.243 2.566-2.179.602-2.214-.605-.141-1.58H7.691l.247 3.123L12 17.506l4.028-1.08.558-6.111H9.402v-.001z"/></svg><svg viewBox="0 0 24 24" id="js" xmlns="http://www.w3.org/2000/svg"><path d="M12 21.985c-.275 0-.532-.074-.772-.202l-2.439-1.448c-.365-.203-.182-.277-.072-.314.496-.165.588-.201 1.101-.493.056-.037.129-.02.185.017l1.87 1.12c.074.036.166.036.221 0l7.319-4.237c.074-.036.11-.11.11-.202V7.768c0-.091-.036-.165-.11-.201l-7.319-4.219c-.073-.037-.165-.037-.221 0L4.552 7.566c-.073.036-.11.129-.11.201v8.457c0 .073.037.166.11.202l2 1.157c1.082.548 1.762-.095 1.762-.735V8.502c0-.11.091-.221.22-.221h.936c.108 0 .22.092.22.221v8.347c0 1.449-.788 2.294-2.164 2.294-.422 0-.752 0-1.688-.46l-1.925-1.099a1.55 1.55 0 01-.771-1.34V7.786c0-.55.293-1.064.771-1.339l7.316-4.237a1.637 1.637 0 011.544 0l7.317 4.237c.479.274.771.789.771 1.339v8.458c0 .549-.293 1.063-.771 1.34l-7.317 4.236c-.241.11-.516.165-.773.165zm2.256-5.816c-3.21 0-3.87-1.468-3.87-2.714 0-.11.092-.221.22-.221h.954c.11 0 .201.073.201.184.147.971.568 1.449 2.514 1.449 1.54 0 2.202-.35 2.202-1.175 0-.477-.185-.825-2.587-1.063-1.999-.2-3.246-.643-3.246-2.238 0-1.485 1.247-2.366 3.339-2.366 2.347 0 3.503.809 3.649 2.568a.297.297 0 01-.056.165c-.037.036-.091.073-.146.073h-.953a.212.212 0 01-.202-.164c-.221-1.012-.789-1.34-2.292-1.34-1.689 0-1.891.587-1.891 1.027 0 .531.237.696 2.514.99 2.256.293 3.32.715 3.32 2.294-.02 1.615-1.339 2.531-3.67 2.531z"/></svg><svg viewBox="0 0 24 24" id="link" xmlns="http://www.w3.org/2000/svg"><path d="M8.465 11.293c1.133-1.133 3.109-1.133 4.242 0l.707.707 1.414-1.414-.707-.707c-.943-.944-2.199-1.465-3.535-1.465s-2.592.521-3.535 1.465L4.929 12a5.008 5.008 0 000 7.071 4.983 4.983 0 003.535 1.462A4.982 4.982 0 0012 19.071l.707-.707-1.414-1.414-.707.707a3.007 3.007 0 01-4.243 0 3.005 3.005 0 010-4.243l2.122-2.121z"/><path d="M12 4.929l-.707.707 1.414 1.414.707-.707a3.007 3.007 0 014.243 0 3.005 3.005 0 010 4.243l-2.122 2.121c-1.133 1.133-3.109 1.133-4.242 0L10.586 12l-1.414 1.414.707.707c.943.944 2.199 1.465 3.535 1.465s2.592-.521 3.535-1.465L19.071 12a5.008 5.008 0 000-7.071 5.006 5.006 0 00-7.071 0z"/></svg><svg viewBox="0 0 24 24" id="linkedin" xmlns="http://www.w3.org/2000/svg"><circle cx="4.983" cy="5.009" r="2.188"/><path d="M9.237 8.855v12.139h3.769v-6.003c0-1.584.298-3.118 2.262-3.118 1.937 0 1.961 1.811 1.961 3.218v5.904H21v-6.657c0-3.27-.704-5.783-4.526-5.783-1.835 0-3.065 1.007-3.568 1.96h-.051v-1.66H9.237zm-6.142 0H6.87v12.139H3.095z"/></svg><svg viewBox="0 0 24 24" id="mail" xmlns="http://www.w3.org/2000/svg"><path d="M18.73 5.41l-1.28 1L12 10.46 6.55 6.37l-1.28-1A2 2 0 002 7.05v11.59A1.36 1.36 0 003.36 20h3.19v-7.72L12 16.37l5.45-4.09V20h3.19A1.36 1.36 0 0022 18.64V7.05a2 2 0 00-3.27-1.64z"/></svg><svg viewBox="0 0 24 24" id="menu" xmlns="http://www.w3.org/2000/svg"><path d="M4 6h16v2H4zm4 5h12v2H8zm5 5h7v2h-7z"/></svg><svg viewBox="0 0 24 24" id="meta" xmlns="http://www.w3.org/2000/svg"><path d="M20.26 7.8a4.82 4.82 0 00-3.93-2.44 3.91 3.91 0 00-2.54 1.09 10.58 10.58 0 00-1.52 1.71 11 11 0 00-1.63-1.72 4.39 4.39 0 00-2.88-1.08A5 5 0 003.7 8 11.49 11.49 0 002 14a7 7 0 00.18 1.64A4.44 4.44 0 002.71 17a3.23 3.23 0 003 1.6c1.25 0 2.19-.56 3.3-2a26.4 26.4 0 002.21-3.6l.63-1.12c.06-.09.11-.18.16-.27l.15.25 1.79 3A14.77 14.77 0 0016 17.63a3.38 3.38 0 002.55 1 3 3 0 002.54-1.23 2.2 2.2 0 00.18-.28 4.1 4.1 0 00.31-.63l.12-.35A6.53 6.53 0 0022 15a9 9 0 000-1 11.15 11.15 0 00-1.74-6.2zm-10.12 3.56c-.64 1-1.57 2.51-2.37 3.61-1 1.37-1.51 1.51-2.07 1.51a1.29 1.29 0 01-1.15-.66 3.3 3.3 0 01-.39-1.7A9.74 9.74 0 015.54 9a2.8 2.8 0 012.19-1.47A3 3 0 0110 8.74a14.07 14.07 0 011 1.31zm8.42 5.12c-.48 0-.85-.19-1.38-.83A34.87 34.87 0 0114.82 12l-.52-.86c-.36-.61-.71-1.16-1-1.65a2.46 2.46 0 01.17-.27c.94-1.39 1.77-2.17 2.8-2.17a3.12 3.12 0 012.49 1.66 10.17 10.17 0 011.37 5.34c-.04 1.31-.34 2.43-1.57 2.43z"/></svg><svg viewBox="0 0 512 512" id="optimization" xmlns="http://www.w3.org/2000/svg"><defs><style>.kfil0{fill:#000}</style></defs><g id="kLayer_x0020_1"><g id="k_466052680"><path class="kfil0" d="M307 512H205c-4 0-7-3-7-8v-52c-9-3-18-7-27-11l-37 37c-1 1-3 2-5 2s-3-1-5-2l-71-71c-1-2-2-4-2-5 0-2 1-4 2-5l37-37c-5-9-9-18-11-27H27c-5 0-8-3-8-7v-56c0-4 3-7 8-7 4 0 7 3 7 7v48h50c3 0 6 2 7 6 3 11 8 22 14 33 2 3 1 6-1 9l-36 36 61 61 36-36c2-2 6-3 9-1 11 6 22 11 34 14 2 1 5 4 5 7v50h86v-50c0-3 3-6 5-7 13-4 24-9 34-14 3-2 6-1 8 1l36 36 61-61-35-36c-3-3-3-6-2-9 7-11 11-22 15-33 0-3 3-6 7-6h50v-48c0-4 3-7 7-7 5 0 8 3 8 7v56c0 4-3 7-8 7h-52c-3 9-7 18-11 27l37 37c1 1 2 3 2 5 0 1-1 3-2 5l-72 71c-3 3-7 3-10 0l-37-37c-8 4-17 8-26 11v52c0 5-4 8-7 8z"/><path class="kfil0" d="M256 400c-69 0-125-56-125-125 0-4 4-7 8-7s7 3 7 7c0 61 49 110 110 110s110-49 110-110c0-4 3-7 8-7 4 0 7 3 7 7-1 69-57 125-125 125zm229-123h-67c-5 0-8-3-8-7v-34c0-36-12-71-35-98-3-3-2-8 1-11 3-2 7-2 10 1 25 30 39 69 39 108v26h53l-1-26c0-58-21-112-60-153-3-3-3-7 0-10s8-3 11 0c41 44 64 101 64 163v33c0 2-1 4-2 5-1 2-3 3-5 3zm-391 0H27c-3 0-4-1-5-2-2-1-3-3-3-5l1-34C19 106 126 0 256 0c56 0 110 20 152 55 3 3 3 8 0 11-2 3-7 3-10 1-39-34-90-52-142-52-123 0-222 99-222 221v27h52v-27c0-93 77-169 170-169 31 0 62 9 89 25 3 3 4 7 2 10-2 4-6 5-10 3-24-15-52-23-81-23-85 0-155 69-155 154v34c0 4-3 7-7 7zm173-47c-16 0-28-13-28-28s13-27 28-27 27 12 27 27c0 16-12 28-27 28zm0-41c-7 0-13 6-13 13s6 13 13 13 13-6 13-13-6-13-13-13z"/><path class="kfil0" d="M256 277c-18 0-36-8-48-21-13-14-19-35-17-53 2-15 10-27 22-34L462 16c3-2 7-1 9 1 3 3 3 7 1 9L294 259c-8 11-21 17-36 18h-2zM436 49L221 181c-11 6-14 17-15 24-2 14 3 30 12 41 10 10 25 17 39 16 8 0 18-2 26-12L436 49z"/></g></g></svg><svg viewBox="0 0 24 24" id="react" xmlns="http://www.w3.org/2000/svg"><circle cx="12" cy="11.245" r="1.785"/><path d="M7.002 14.794l-.395-.101c-2.934-.741-4.617-2.001-4.617-3.452 0-1.452 1.684-2.711 4.617-3.452l.395-.1.111.391a19.507 19.507 0 001.136 2.983l.085.178-.085.178c-.46.963-.841 1.961-1.136 2.985l-.111.39zm-.577-6.095c-2.229.628-3.598 1.586-3.598 2.542 0 .954 1.368 1.913 3.598 2.54.273-.868.603-1.717.985-2.54a20.356 20.356 0 01-.985-2.542zm10.572 6.095l-.11-.392a19.628 19.628 0 00-1.137-2.984l-.085-.177.085-.179c.46-.961.839-1.96 1.137-2.984l.11-.39.395.1c2.935.741 4.617 2 4.617 3.453 0 1.452-1.683 2.711-4.617 3.452l-.395.101zm-.41-3.553c.4.866.733 1.718.987 2.54 2.23-.627 3.599-1.586 3.599-2.54 0-.956-1.368-1.913-3.599-2.542a20.683 20.683 0 01-.987 2.542z"/><path d="M6.419 8.695l-.11-.39c-.826-2.908-.576-4.991.687-5.717 1.235-.715 3.222.13 5.303 2.265l.284.292-.284.291a19.718 19.718 0 00-2.02 2.474l-.113.162-.196.016a19.646 19.646 0 00-3.157.509l-.394.098zm1.582-5.529c-.224 0-.422.049-.589.145-.828.477-.974 2.138-.404 4.38.891-.197 1.79-.338 2.696-.417a21.058 21.058 0 011.713-2.123c-1.303-1.267-2.533-1.985-3.416-1.985zm7.997 16.984c-1.188 0-2.714-.896-4.298-2.522l-.283-.291.283-.29a19.827 19.827 0 002.021-2.477l.112-.16.194-.019a19.473 19.473 0 003.158-.507l.395-.1.111.391c.822 2.906.573 4.992-.688 5.718a1.978 1.978 0 01-1.005.257zm-3.415-2.82c1.302 1.267 2.533 1.986 3.415 1.986.225 0 .423-.05.589-.145.829-.478.976-2.142.404-4.384-.89.198-1.79.34-2.698.419a20.526 20.526 0 01-1.71 2.124z"/><path d="M17.58 8.695l-.395-.099a19.477 19.477 0 00-3.158-.509l-.194-.017-.112-.162A19.551 19.551 0 0011.7 5.434l-.283-.291.283-.29c2.08-2.134 4.066-2.979 5.303-2.265 1.262.727 1.513 2.81.688 5.717l-.111.39zm-3.287-1.421c.954.085 1.858.228 2.698.417.571-2.242.425-3.903-.404-4.381-.824-.477-2.375.253-4.004 1.841.616.67 1.188 1.378 1.71 2.123zM8.001 20.15a1.983 1.983 0 01-1.005-.257c-1.263-.726-1.513-2.811-.688-5.718l.108-.391.395.1c.964.243 2.026.414 3.158.507l.194.019.113.16c.604.878 1.28 1.707 2.02 2.477l.284.29-.284.291c-1.583 1.627-3.109 2.522-4.295 2.522zm-.993-5.362c-.57 2.242-.424 3.906.404 4.384.825.47 2.371-.255 4.005-1.842a21.17 21.17 0 01-1.713-2.123 20.692 20.692 0 01-2.696-.419z"/><path d="M12 15.313c-.687 0-1.392-.029-2.1-.088l-.196-.017-.113-.162a25.697 25.697 0 01-1.126-1.769 26.028 26.028 0 01-.971-1.859l-.084-.177.084-.179c.299-.632.622-1.252.971-1.858.347-.596.726-1.192 1.126-1.77l.113-.16.196-.018a25.148 25.148 0 014.198 0l.194.019.113.16a25.136 25.136 0 012.1 3.628l.083.179-.083.177a24.742 24.742 0 01-2.1 3.628l-.113.162-.194.017c-.706.057-1.412.087-2.098.087zm-1.834-.904c1.235.093 2.433.093 3.667 0a24.469 24.469 0 001.832-3.168 23.916 23.916 0 00-1.832-3.168 23.877 23.877 0 00-3.667 0 23.743 23.743 0 00-1.832 3.168 24.82 24.82 0 001.832 3.168z"/></svg><svg viewBox="0 0 1707 1707" id="responsive" xmlns="http://www.w3.org/2000/svg"><defs><style>.mfil0{fill:#000}</style></defs><g id="mLayer_x0020_1"><g id="m_412939280"><path class="mfil0" d="M1619 1501h-422c-48 0-87-39-87-88V575c0-49 39-88 87-88h423c49 0 87 39 87 88v838c-1 49-40 88-88 88zm-422-965c-22 0-39 16-39 39v838c0 21 18 39 39 39h423c21 0 39-18 39-39V575c0-23-17-39-39-39h-423z"/><path class="mfil0" d="M1682 668h-549c-13 0-25-12-25-25 0-14 12-25 25-25h548c14 0 25 11 25 25 0 13-11 25-24 25zm0 694h-549c-13 0-25-11-25-25s12-25 25-25h548c14 0 25 11 25 25s-11 25-24 25zm-219-760h-111c-13 0-25-11-25-25 0-13 12-25 25-25h111c14 0 25 12 25 25 0 14-11 25-25 25zm132 0h-40c-14 0-25-11-25-25 0-13 11-25 25-25h40c14 0 25 12 25 25 0 14-11 25-25 25z"/><path class="mfil0" d="M1133 1199H24c-14 0-25-12-25-25V231c0-14 11-25 25-25h1356c14 0 25 11 25 25v281c0 14-11 25-25 25s-25-11-25-25V254H49v895h1084c14 0 25 11 25 25 0 13-11 25-25 25zm-91 302H364c-8 0-15-4-19-10-5-7-6-15-3-22l50-136c4-10 12-15 22-15h578c10 0 19 7 22 15l50 136c3 7 1 15-3 22s-11 10-19 10zm-643-49h608l-32-87H432l-33 87z"/><path class="mfil0" d="M777 1366c-14 0-25-11-25-25v-167c0-14 11-25 25-25s25 11 25 25v167c0 14-11 25-25 25zm-150 0c-14 0-25-11-25-25v-167c0-14 11-25 25-25s25 11 25 25v167c0 14-11 25-25 25zm506-301H24c-14 0-25-11-25-25 0-13 11-24 25-24h1109c14 0 25 11 25 24 0 14-11 25-25 25zm344 366h-137c-14 0-25-11-25-24 0-14 11-25 25-25h137c14 0 25 11 25 25 0 13-11 24-25 24zM966 881c-5 0-9-1-13-3L245 468c-11-7-16-22-9-33s23-16 34-9l709 411c12 7 16 22 9 33-6 7-14 11-22 11z"/><path class="mfil0" d="M271 571c-12 0-22-9-24-21l-15-99c-1-11 4-22 15-26l93-36c13-4 27 1 32 14 4 12-1 26-14 32l-74 29 12 79c1 14-7 25-21 28h-4zm602 346c-10 0-20-5-22-15-5-13 1-26 13-32l75-29-12-79c-3-14 7-27 19-28 14-3 27 7 28 20l17 98c1 11-5 22-16 26l-93 36c-2 3-5 3-9 3zm535 445c-14 0-25-11-25-25v-183c0-14 11-25 25-25s25 11 25 25v183c0 15-11 25-25 25zm83 0c-14 0-25-11-25-25v-140c0-5 2-11 6-15l40-50v-72c0-14 11-25 25-25s25 11 25 25v80c0 6-2 11-6 16l-40 49v134c0 13-11 23-25 23zm-166 0c-14 0-25-11-25-25v-133l-40-50c-5-4-6-10-6-15v-80c0-14 11-25 25-25s25 11 25 25v72l40 50c4 4 6 9 6 15v141c-2 15-13 25-25 25z"/><path class="mfil0" d="M1535 1085c-33 0-59-26-59-60 0-33 26-59 59-59 34 0 60 26 60 59 1 32-26 60-60 60zm0-72c-6 0-11 5-11 11 0 5 6 11 11 11 6 0 12-6 12-11 0-6-5-11-12-11zm-256 72c-33 0-60-26-60-60 0-33 27-59 60-59s61 26 61 59c1 32-26 60-61 60zm0-72c-7 0-11 5-11 11 0 5 5 11 11 11 7 0 12-6 12-11 0-6-5-11-12-11zm129 166c-33 0-60-28-60-61s27-59 60-59 60 26 60 59c1 33-27 61-60 61zm0-73c-7 0-11 5-11 11 0 7 5 12 11 12 5 0 11-5 11-12 1-6-4-11-11-11z"/></g></g></svg><svg viewBox="0 0 24 24" id="sun" xmlns="http://www.w3.org/2000/svg"><path d="M6.993 12c0 2.761 2.246 5.007 5.007 5.007s5.007-2.246 5.007-5.007S14.761 6.993 12 6.993 6.993 9.239 6.993 12zM12 8.993c1.658 0 3.007 1.349 3.007 3.007S13.658 15.007 12 15.007 8.993 13.658 8.993 12 10.342 8.993 12 8.993zM10.998 19h2v3h-2zm0-17h2v3h-2zm-9 9h3v2h-3zm17 0h3v2h-3zM4.219 18.363l2.12-2.122 1.415 1.414-2.12 2.122zM16.24 6.344l2.122-2.122 1.414 1.414-2.122 2.122zM6.342 7.759L4.22 5.637l1.415-1.414 2.12 2.122zm13.434 10.605l-1.414 1.414-2.122-2.122 1.414-1.414z"/></svg><svg viewBox="0 0 24 24" id="telegram" xmlns="http://www.w3.org/2000/svg"><path d="M20.665 3.717l-17.73 6.837c-1.21.486-1.203 1.161-.222 1.462l4.552 1.42 10.532-6.645c.498-.303.953-.14.579.192l-8.533 7.701h-.002l.002.001-.314 4.692c.46 0 .663-.211.921-.46l2.211-2.15 4.599 3.397c.848.467 1.457.227 1.668-.785l3.019-14.228c.309-1.239-.473-1.8-1.282-1.434z"/></svg><svg viewBox="0 0 24 24" id="top" xmlns="http://www.w3.org/2000/svg"><path d="M11 8.414V18h2V8.414l4.293 4.293 1.414-1.414L12 4.586l-6.707 6.707 1.414 1.414z"/></svg></svg>